<svg xmlns="http://www.w3.org/2000/svg" xmlns:xlink="http://www.w3.org/1999/xlink" preserveAspectRatio="xMidYMid" width="40" height="40" viewBox="0 0 40 40">
  <defs>
    <style>
      .cls-1 {
        fill: #fff;
        fill-rule: evenodd;
      }

      .cls-2 {
        stroke: #fff;
        stroke-width: 1px;
        fill: none;
      }
    </style>
  </defs>
  <g id="artboard-1">
    <path d="M28.467,21.916 C28.365,22.407 27.919,22.763 27.409,22.763 L14.050,22.763 L14.368,24.279 L27.309,24.279 C27.608,24.279 27.850,24.517 27.850,24.810 C27.850,25.103 27.608,25.340 27.309,25.340 L14.368,25.340 C13.858,25.340 13.413,24.984 13.310,24.493 L10.696,12.030 L8.325,11.019 C8.052,10.902 7.926,10.590 8.045,10.321 C8.164,10.052 8.482,9.929 8.756,10.045 L11.126,11.056 C11.449,11.194 11.683,11.478 11.755,11.816 L12.094,13.436 L28.920,13.436 C29.247,13.436 29.552,13.579 29.758,13.827 C29.964,14.075 30.044,14.398 29.979,14.712 L28.467,21.916 ZM12.317,14.497 L13.828,21.702 L27.409,21.702 L28.920,14.497 L12.317,14.497 ZM24.488,17.253 L16.748,17.253 C16.449,17.253 16.207,17.015 16.207,16.722 C16.207,16.429 16.449,16.191 16.748,16.191 L24.488,16.191 C24.787,16.191 25.029,16.429 25.029,16.722 C25.029,17.015 24.787,17.253 24.488,17.253 ZM17.169,18.947 L24.067,18.947 C24.365,18.947 24.607,19.185 24.607,19.478 C24.607,19.771 24.365,20.008 24.067,20.008 L17.169,20.008 C16.871,20.008 16.629,19.771 16.629,19.478 C16.629,19.185 16.871,18.947 17.169,18.947 ZM17.225,26.199 C18.292,26.199 19.160,27.051 19.160,28.099 C19.160,29.147 18.292,30.000 17.225,30.000 C16.158,30.000 15.290,29.147 15.290,28.099 C15.290,27.051 16.158,26.199 17.225,26.199 ZM17.225,28.939 C17.696,28.939 18.080,28.562 18.080,28.099 C18.080,27.636 17.696,27.260 17.225,27.260 C16.754,27.260 16.371,27.636 16.371,28.099 C16.371,28.562 16.754,28.939 17.225,28.939 ZM24.012,26.199 C25.079,26.199 25.947,27.051 25.947,28.099 C25.947,29.147 25.079,30.000 24.012,30.000 C22.945,30.000 22.077,29.147 22.077,28.099 C22.077,27.051 22.945,26.199 24.012,26.199 ZM24.012,28.939 C24.483,28.939 24.867,28.562 24.867,28.099 C24.867,27.636 24.483,27.260 24.012,27.260 C23.541,27.260 23.158,27.636 23.158,28.099 C23.158,28.562 23.541,28.939 24.012,28.939 Z" class="cls-1"/>
    <circle cx="20" cy="20" r="20" class="cls-2"/>
  </g>
</svg>
